<svg width="16" height="16" viewBox="0 0 16 16" fill="none" xmlns="http://www.w3.org/2000/svg">
<path d="M8.10666 7.24671C8.03999 7.24004 7.95999 7.24004 7.88666 7.24671C6.29999 7.19337 5.03999 5.89337 5.03999 4.29337C5.03999 2.66004 6.35999 1.33337 7.99999 1.33337C9.63333 1.33337 10.96 2.66004 10.96 4.29337C10.9533 5.89337 9.69333 7.19337 8.10666 7.24671Z" stroke="#282828" stroke-width="1.2" stroke-linecap="round" stroke-linejoin="round"/>
<path d="M4.77334 9.70663C3.16001 10.7866 3.16001 12.5466 4.77334 13.62C6.60667 14.8466 9.61334 14.8466 11.4467 13.62C13.06 12.54 13.06 10.78 11.4467 9.70663C9.62001 8.48663 6.61334 8.48663 4.77334 9.70663Z" stroke="#282828" stroke-width="1.2" stroke-linecap="round" stroke-linejoin="round"/>
</svg>
